<?xml version="1.0" encoding="utf-8" standalone="no"?>
<!DOCTYPE svg PUBLIC "-//W3C//DTD SVG 1.1//EN"
  "http://www.w3.org/Graphics/SVG/1.1/DTD/svg11.dtd">
<!-- Created with matplotlib (http://matplotlib.org/) -->
<svg height="288pt" version="1.1" viewBox="0 0 504 288" width="504pt" xmlns="http://www.w3.org/2000/svg" xmlns:xlink="http://www.w3.org/1999/xlink">
 <defs>
  <style type="text/css">
*{stroke-linecap:butt;stroke-linejoin:round;}
  </style>
 </defs>
 <g id="figure_1">
  <g id="patch_1">
   <path d="M 0 288 
L 504 288 
L 504 0 
L 0 0 
z
" style="fill:#ffffff;"/>
  </g>
  <g id="axes_1">
   <g id="patch_2">
    <path d="M 63 252 
L 453.6 252 
L 453.6 34.56 
L 63 34.56 
z
" style="fill:#ffffff;"/>
   </g>
   <g id="matplotlib.axis_1">
    <g id="xtick_1">
     <g id="line2d_1">
      <defs>
       <path d="M 0 0 
L 0 3.5 
" id="m2213df8d1d" style="stroke:#000000;stroke-width:0.8;"/>
      </defs>
      <g>
       <use style="stroke:#000000;stroke-width:0.8;" x="79.641408" xlink:href="#m2213df8d1d" y="252"/>
      </g>
     </g>
     <g id="text_1">
      <!-- 0 -->
      <defs>
       <path d="M 31.78125 66.40625 
Q 24.171875 66.40625 20.328125 58.90625 
Q 16.5 51.421875 16.5 36.375 
Q 16.5 21.390625 20.328125 13.890625 
Q 24.171875 6.390625 31.78125 6.390625 
Q 39.453125 6.390625 43.28125 13.890625 
Q 47.125 21.390625 47.125 36.375 
Q 47.125 51.421875 43.28125 58.90625 
Q 39.453125 66.40625 31.78125 66.40625 
z
M 31.78125 74.21875 
Q 44.046875 74.21875 50.515625 64.515625 
Q 56.984375 54.828125 56.984375 36.375 
Q 56.984375 17.96875 50.515625 8.265625 
Q 44.046875 -1.421875 31.78125 -1.421875 
Q 19.53125 -1.421875 13.0625 8.265625 
Q 6.59375 17.96875 6.59375 36.375 
Q 6.59375 54.828125 13.0625 64.515625 
Q 19.53125 74.21875 31.78125 74.21875 
z
" id="DejaVuSans-30"/>
      </defs>
      <g transform="translate(76.460158 266.598437)scale(0.1 -0.1)">
       <use xlink:href="#DejaVuSans-30"/>
      </g>
     </g>
    </g>
    <g id="xtick_2">
     <g id="line2d_2">
      <g>
       <use style="stroke:#000000;stroke-width:0.8;" x="124.166914" xlink:href="#m2213df8d1d" y="252"/>
      </g>
     </g>
     <g id="text_2">
      <!-- 1000 -->
      <defs>
       <path d="M 12.40625 8.296875 
L 28.515625 8.296875 
L 28.515625 63.921875 
L 10.984375 60.40625 
L 10.984375 69.390625 
L 28.421875 72.90625 
L 38.28125 72.90625 
L 38.28125 8.296875 
L 54.390625 8.296875 
L 54.390625 0 
L 12.40625 0 
z
" id="DejaVuSans-31"/>
      </defs>
      <g transform="translate(111.441914 266.598437)scale(0.1 -0.1)">
       <use xlink:href="#DejaVuSans-31"/>
       <use x="63.623047" xlink:href="#DejaVuSans-30"/>
       <use x="127.246094" xlink:href="#DejaVuSans-30"/>
       <use x="190.869141" xlink:href="#DejaVuSans-30"/>
      </g>
     </g>
    </g>
    <g id="xtick_3">
     <g id="line2d_3">
      <g>
       <use style="stroke:#000000;stroke-width:0.8;" x="168.692419" xlink:href="#m2213df8d1d" y="252"/>
      </g>
     </g>
     <g id="text_3">
      <!-- 2000 -->
      <defs>
       <path d="M 19.1875 8.296875 
L 53.609375 8.296875 
L 53.609375 0 
L 7.328125 0 
L 7.328125 8.296875 
Q 12.9375 14.109375 22.625 23.890625 
Q 32.328125 33.6875 34.8125 36.53125 
Q 39.546875 41.84375 41.421875 45.53125 
Q 43.3125 49.21875 43.3125 52.78125 
Q 43.3125 58.59375 39.234375 62.25 
Q 35.15625 65.921875 28.609375 65.921875 
Q 23.96875 65.921875 18.8125 64.3125 
Q 13.671875 62.703125 7.8125 59.421875 
L 7.8125 69.390625 
Q 13.765625 71.78125 18.9375 73 
Q 24.125 74.21875 28.421875 74.21875 
Q 39.75 74.21875 46.484375 68.546875 
Q 53.21875 62.890625 53.21875 53.421875 
Q 53.21875 48.921875 51.53125 44.890625 
Q 49.859375 40.875 45.40625 35.40625 
Q 44.1875 33.984375 37.640625 27.21875 
Q 31.109375 20.453125 19.1875 8.296875 
z
" id="DejaVuSans-32"/>
      </defs>
      <g transform="translate(155.967419 266.598437)scale(0.1 -0.1)">
       <use xlink:href="#DejaVuSans-32"/>
       <use x="63.623047" xlink:href="#DejaVuSans-30"/>
       <use x="127.246094" xlink:href="#DejaVuSans-30"/>
       <use x="190.869141" xlink:href="#DejaVuSans-30"/>
      </g>
     </g>
    </g>
    <g id="xtick_4">
     <g id="line2d_4">
      <g>
       <use style="stroke:#000000;stroke-width:0.8;" x="213.217925" xlink:href="#m2213df8d1d" y="252"/>
      </g>
     </g>
     <g id="text_4">
      <!-- 3000 -->
      <defs>
       <path d="M 40.578125 39.3125 
Q 47.65625 37.796875 51.625 33 
Q 55.609375 28.21875 55.609375 21.1875 
Q 55.609375 10.40625 48.1875 4.484375 
Q 40.765625 -1.421875 27.09375 -1.421875 
Q 22.515625 -1.421875 17.65625 -0.515625 
Q 12.796875 0.390625 7.625 2.203125 
L 7.625 11.71875 
Q 11.71875 9.328125 16.59375 8.109375 
Q 21.484375 6.890625 26.8125 6.890625 
Q 36.078125 6.890625 40.9375 10.546875 
Q 45.796875 14.203125 45.796875 21.1875 
Q 45.796875 27.640625 41.28125 31.265625 
Q 36.765625 34.90625 28.71875 34.90625 
L 20.21875 34.90625 
L 20.21875 43.015625 
L 29.109375 43.015625 
Q 36.375 43.015625 40.234375 45.921875 
Q 44.09375 48.828125 44.09375 54.296875 
Q 44.09375 59.90625 40.109375 62.90625 
Q 36.140625 65.921875 28.71875 65.921875 
Q 24.65625 65.921875 20.015625 65.03125 
Q 15.375 64.15625 9.8125 62.3125 
L 9.8125 71.09375 
Q 15.4375 72.65625 20.34375 73.4375 
Q 25.25 74.21875 29.59375 74.21875 
Q 40.828125 74.21875 47.359375 69.109375 
Q 53.90625 64.015625 53.90625 55.328125 
Q 53.90625 49.265625 50.4375 45.09375 
Q 46.96875 40.921875 40.578125 39.3125 
z
" id="DejaVuSans-33"/>
      </defs>
      <g transform="translate(200.492925 266.598437)scale(0.1 -0.1)">
       <use xlink:href="#DejaVuSans-33"/>
       <use x="63.623047" xlink:href="#DejaVuSans-30"/>
       <use x="127.246094" xlink:href="#DejaVuSans-30"/>
       <use x="190.869141" xlink:href="#DejaVuSans-30"/>
      </g>
     </g>
    </g>
    <g id="xtick_5">
     <g id="line2d_5">
      <g>
       <use style="stroke:#000000;stroke-width:0.8;" x="257.743431" xlink:href="#m2213df8d1d" y="252"/>
      </g>
     </g>
     <g id="text_5">
      <!-- 4000 -->
      <defs>
       <path d="M 37.796875 64.3125 
L 12.890625 25.390625 
L 37.796875 25.390625 
z
M 35.203125 72.90625 
L 47.609375 72.90625 
L 47.609375 25.390625 
L 58.015625 25.390625 
L 58.015625 17.1875 
L 47.609375 17.1875 
L 47.609375 0 
L 37.796875 0 
L 37.796875 17.1875 
L 4.890625 17.1875 
L 4.890625 26.703125 
z
" id="DejaVuSans-34"/>
      </defs>
      <g transform="translate(245.018431 266.598437)scale(0.1 -0.1)">
       <use xlink:href="#DejaVuSans-34"/>
       <use x="63.623047" xlink:href="#DejaVuSans-30"/>
       <use x="127.246094" xlink:href="#DejaVuSans-30"/>
       <use x="190.869141" xlink:href="#DejaVuSans-30"/>
      </g>
     </g>
    </g>
    <g id="xtick_6">
     <g id="line2d_6">
      <g>
       <use style="stroke:#000000;stroke-width:0.8;" x="302.268937" xlink:href="#m2213df8d1d" y="252"/>
      </g>
     </g>
     <g id="text_6">
      <!-- 5000 -->
      <defs>
       <path d="M 10.796875 72.90625 
L 49.515625 72.90625 
L 49.515625 64.59375 
L 19.828125 64.59375 
L 19.828125 46.734375 
Q 21.96875 47.46875 24.109375 47.828125 
Q 26.265625 48.1875 28.421875 48.1875 
Q 40.625 48.1875 47.75 41.5 
Q 54.890625 34.8125 54.890625 23.390625 
Q 54.890625 11.625 47.5625 5.09375 
Q 40.234375 -1.421875 26.90625 -1.421875 
Q 22.3125 -1.421875 17.546875 -0.640625 
Q 12.796875 0.140625 7.71875 1.703125 
L 7.71875 11.625 
Q 12.109375 9.234375 16.796875 8.0625 
Q 21.484375 6.890625 26.703125 6.890625 
Q 35.15625 6.890625 40.078125 11.328125 
Q 45.015625 15.765625 45.015625 23.390625 
Q 45.015625 31 40.078125 35.4375 
Q 35.15625 39.890625 26.703125 39.890625 
Q 22.75 39.890625 18.8125 39.015625 
Q 14.890625 38.140625 10.796875 36.28125 
z
" id="DejaVuSans-35"/>
      </defs>
      <g transform="translate(289.543937 266.598437)scale(0.1 -0.1)">
       <use xlink:href="#DejaVuSans-35"/>
       <use x="63.623047" xlink:href="#DejaVuSans-30"/>
       <use x="127.246094" xlink:href="#DejaVuSans-30"/>
       <use x="190.869141" xlink:href="#DejaVuSans-30"/>
      </g>
     </g>
    </g>
    <g id="xtick_7">
     <g id="line2d_7">
      <g>
       <use style="stroke:#000000;stroke-width:0.8;" x="346.794443" xlink:href="#m2213df8d1d" y="252"/>
      </g>
     </g>
     <g id="text_7">
      <!-- 6000 -->
      <defs>
       <path d="M 33.015625 40.375 
Q 26.375 40.375 22.484375 35.828125 
Q 18.609375 31.296875 18.609375 23.390625 
Q 18.609375 15.53125 22.484375 10.953125 
Q 26.375 6.390625 33.015625 6.390625 
Q 39.65625 6.390625 43.53125 10.953125 
Q 47.40625 15.53125 47.40625 23.390625 
Q 47.40625 31.296875 43.53125 35.828125 
Q 39.65625 40.375 33.015625 40.375 
z
M 52.59375 71.296875 
L 52.59375 62.3125 
Q 48.875 64.0625 45.09375 64.984375 
Q 41.3125 65.921875 37.59375 65.921875 
Q 27.828125 65.921875 22.671875 59.328125 
Q 17.53125 52.734375 16.796875 39.40625 
Q 19.671875 43.65625 24.015625 45.921875 
Q 28.375 48.1875 33.59375 48.1875 
Q 44.578125 48.1875 50.953125 41.515625 
Q 57.328125 34.859375 57.328125 23.390625 
Q 57.328125 12.15625 50.6875 5.359375 
Q 44.046875 -1.421875 33.015625 -1.421875 
Q 20.359375 -1.421875 13.671875 8.265625 
Q 6.984375 17.96875 6.984375 36.375 
Q 6.984375 53.65625 15.1875 63.9375 
Q 23.390625 74.21875 37.203125 74.21875 
Q 40.921875 74.21875 44.703125 73.484375 
Q 48.484375 72.75 52.59375 71.296875 
z
" id="DejaVuSans-36"/>
      </defs>
      <g transform="translate(334.069443 266.598437)scale(0.1 -0.1)">
       <use xlink:href="#DejaVuSans-36"/>
       <use x="63.623047" xlink:href="#DejaVuSans-30"/>
       <use x="127.246094" xlink:href="#DejaVuSans-30"/>
       <use x="190.869141" xlink:href="#DejaVuSans-30"/>
      </g>
     </g>
    </g>
    <g id="xtick_8">
     <g id="line2d_8">
      <g>
       <use style="stroke:#000000;stroke-width:0.8;" x="391.319949" xlink:href="#m2213df8d1d" y="252"/>
      </g>
     </g>
     <g id="text_8">
      <!-- 7000 -->
      <defs>
       <path d="M 8.203125 72.90625 
L 55.078125 72.90625 
L 55.078125 68.703125 
L 28.609375 0 
L 18.3125 0 
L 43.21875 64.59375 
L 8.203125 64.59375 
z
" id="DejaVuSans-37"/>
      </defs>
      <g transform="translate(378.594949 266.598437)scale(0.1 -0.1)">
       <use xlink:href="#DejaVuSans-37"/>
       <use x="63.623047" xlink:href="#DejaVuSans-30"/>
       <use x="127.246094" xlink:href="#DejaVuSans-30"/>
       <use x="190.869141" xlink:href="#DejaVuSans-30"/>
      </g>
     </g>
    </g>
    <g id="xtick_9">
     <g id="line2d_9">
      <g>
       <use style="stroke:#000000;stroke-width:0.8;" x="435.845455" xlink:href="#m2213df8d1d" y="252"/>
      </g>
     </g>
     <g id="text_9">
      <!-- 8000 -->
      <defs>
       <path d="M 31.78125 34.625 
Q 24.75 34.625 20.71875 30.859375 
Q 16.703125 27.09375 16.703125 20.515625 
Q 16.703125 13.921875 20.71875 10.15625 
Q 24.75 6.390625 31.78125 6.390625 
Q 38.8125 6.390625 42.859375 10.171875 
Q 46.921875 13.96875 46.921875 20.515625 
Q 46.921875 27.09375 42.890625 30.859375 
Q 38.875 34.625 31.78125 34.625 
z
M 21.921875 38.8125 
Q 15.578125 40.375 12.03125 44.71875 
Q 8.5 49.078125 8.5 55.328125 
Q 8.5 64.0625 14.71875 69.140625 
Q 20.953125 74.21875 31.78125 74.21875 
Q 42.671875 74.21875 48.875 69.140625 
Q 55.078125 64.0625 55.078125 55.328125 
Q 55.078125 49.078125 51.53125 44.71875 
Q 48 40.375 41.703125 38.8125 
Q 48.828125 37.15625 52.796875 32.3125 
Q 56.78125 27.484375 56.78125 20.515625 
Q 56.78125 9.90625 50.3125 4.234375 
Q 43.84375 -1.421875 31.78125 -1.421875 
Q 19.734375 -1.421875 13.25 4.234375 
Q 6.78125 9.90625 6.78125 20.515625 
Q 6.78125 27.484375 10.78125 32.3125 
Q 14.796875 37.15625 21.921875 38.8125 
z
M 18.3125 54.390625 
Q 18.3125 48.734375 21.84375 45.5625 
Q 25.390625 42.390625 31.78125 42.390625 
Q 38.140625 42.390625 41.71875 45.5625 
Q 45.3125 48.734375 45.3125 54.390625 
Q 45.3125 60.0625 41.71875 63.234375 
Q 38.140625 66.40625 31.78125 66.40625 
Q 25.390625 66.40625 21.84375 63.234375 
Q 18.3125 60.0625 18.3125 54.390625 
z
" id="DejaVuSans-38"/>
      </defs>
      <g transform="translate(423.120455 266.598437)scale(0.1 -0.1)">
       <use xlink:href="#DejaVuSans-38"/>
       <use x="63.623047" xlink:href="#DejaVuSans-30"/>
       <use x="127.246094" xlink:href="#DejaVuSans-30"/>
       <use x="190.869141" xlink:href="#DejaVuSans-30"/>
      </g>
     </g>
    </g>
    <g id="text_10">
     <!-- generation -->
     <defs>
      <path d="M 45.40625 27.984375 
Q 45.40625 37.75 41.375 43.109375 
Q 37.359375 48.484375 30.078125 48.484375 
Q 22.859375 48.484375 18.828125 43.109375 
Q 14.796875 37.75 14.796875 27.984375 
Q 14.796875 18.265625 18.828125 12.890625 
Q 22.859375 7.515625 30.078125 7.515625 
Q 37.359375 7.515625 41.375 12.890625 
Q 45.40625 18.265625 45.40625 27.984375 
z
M 54.390625 6.78125 
Q 54.390625 -7.171875 48.1875 -13.984375 
Q 42 -20.796875 29.203125 -20.796875 
Q 24.46875 -20.796875 20.265625 -20.09375 
Q 16.0625 -19.390625 12.109375 -17.921875 
L 12.109375 -9.1875 
Q 16.0625 -11.328125 19.921875 -12.34375 
Q 23.78125 -13.375 27.78125 -13.375 
Q 36.625 -13.375 41.015625 -8.765625 
Q 45.40625 -4.15625 45.40625 5.171875 
L 45.40625 9.625 
Q 42.625 4.78125 38.28125 2.390625 
Q 33.9375 0 27.875 0 
Q 17.828125 0 11.671875 7.65625 
Q 5.515625 15.328125 5.515625 27.984375 
Q 5.515625 40.671875 11.671875 48.328125 
Q 17.828125 56 27.875 56 
Q 33.9375 56 38.28125 53.609375 
Q 42.625 51.21875 45.40625 46.390625 
L 45.40625 54.6875 
L 54.390625 54.6875 
z
" id="DejaVuSans-67"/>
      <path d="M 56.203125 29.59375 
L 56.203125 25.203125 
L 14.890625 25.203125 
Q 15.484375 15.921875 20.484375 11.0625 
Q 25.484375 6.203125 34.421875 6.203125 
Q 39.59375 6.203125 44.453125 7.46875 
Q 49.3125 8.734375 54.109375 11.28125 
L 54.109375 2.78125 
Q 49.265625 0.734375 44.1875 -0.34375 
Q 39.109375 -1.421875 33.890625 -1.421875 
Q 20.796875 -1.421875 13.15625 6.1875 
Q 5.515625 13.8125 5.515625 26.8125 
Q 5.515625 40.234375 12.765625 48.109375 
Q 20.015625 56 32.328125 56 
Q 43.359375 56 49.78125 48.890625 
Q 56.203125 41.796875 56.203125 29.59375 
z
M 47.21875 32.234375 
Q 47.125 39.59375 43.09375 43.984375 
Q 39.0625 48.390625 32.421875 48.390625 
Q 24.90625 48.390625 20.390625 44.140625 
Q 15.875 39.890625 15.1875 32.171875 
z
" id="DejaVuSans-65"/>
      <path d="M 54.890625 33.015625 
L 54.890625 0 
L 45.90625 0 
L 45.90625 32.71875 
Q 45.90625 40.484375 42.875 44.328125 
Q 39.84375 48.1875 33.796875 48.1875 
Q 26.515625 48.1875 22.3125 43.546875 
Q 18.109375 38.921875 18.109375 30.90625 
L 18.109375 0 
L 9.078125 0 
L 9.078125 54.6875 
L 18.109375 54.6875 
L 18.109375 46.1875 
Q 21.34375 51.125 25.703125 53.5625 
Q 30.078125 56 35.796875 56 
Q 45.21875 56 50.046875 50.171875 
Q 54.890625 44.34375 54.890625 33.015625 
z
" id="DejaVuSans-6e"/>
      <path d="M 41.109375 46.296875 
Q 39.59375 47.171875 37.8125 47.578125 
Q 36.03125 48 33.890625 48 
Q 26.265625 48 22.1875 43.046875 
Q 18.109375 38.09375 18.109375 28.8125 
L 18.109375 0 
L 9.078125 0 
L 9.078125 54.6875 
L 18.109375 54.6875 
L 18.109375 46.1875 
Q 20.953125 51.171875 25.484375 53.578125 
Q 30.03125 56 36.53125 56 
Q 37.453125 56 38.578125 55.875 
Q 39.703125 55.765625 41.0625 55.515625 
z
" id="DejaVuSans-72"/>
      <path d="M 34.28125 27.484375 
Q 23.390625 27.484375 19.1875 25 
Q 14.984375 22.515625 14.984375 16.5 
Q 14.984375 11.71875 18.140625 8.90625 
Q 21.296875 6.109375 26.703125 6.109375 
Q 34.1875 6.109375 38.703125 11.40625 
Q 43.21875 16.703125 43.21875 25.484375 
L 43.21875 27.484375 
z
M 52.203125 31.203125 
L 52.203125 0 
L 43.21875 0 
L 43.21875 8.296875 
Q 40.140625 3.328125 35.546875 0.953125 
Q 30.953125 -1.421875 24.3125 -1.421875 
Q 15.921875 -1.421875 10.953125 3.296875 
Q 6 8.015625 6 15.921875 
Q 6 25.140625 12.171875 29.828125 
Q 18.359375 34.515625 30.609375 34.515625 
L 43.21875 34.515625 
L 43.21875 35.40625 
Q 43.21875 41.609375 39.140625 45 
Q 35.0625 48.390625 27.6875 48.390625 
Q 23 48.390625 18.546875 47.265625 
Q 14.109375 46.140625 10.015625 43.890625 
L 10.015625 52.203125 
Q 14.9375 54.109375 19.578125 55.046875 
Q 24.21875 56 28.609375 56 
Q 40.484375 56 46.34375 49.84375 
Q 52.203125 43.703125 52.203125 31.203125 
z
" id="DejaVuSans-61"/>
      <path d="M 18.3125 70.21875 
L 18.3125 54.6875 
L 36.8125 54.6875 
L 36.8125 47.703125 
L 18.3125 47.703125 
L 18.3125 18.015625 
Q 18.3125 11.328125 20.140625 9.421875 
Q 21.96875 7.515625 27.59375 7.515625 
L 36.8125 7.515625 
L 36.8125 0 
L 27.59375 0 
Q 17.1875 0 13.234375 3.875 
Q 9.28125 7.765625 9.28125 18.015625 
L 9.28125 47.703125 
L 2.6875 47.703125 
L 2.6875 54.6875 
L 9.28125 54.6875 
L 9.28125 70.21875 
z
" id="DejaVuSans-74"/>
      <path d="M 9.421875 54.6875 
L 18.40625 54.6875 
L 18.40625 0 
L 9.421875 0 
z
M 9.421875 75.984375 
L 18.40625 75.984375 
L 18.40625 64.59375 
L 9.421875 64.59375 
z
" id="DejaVuSans-69"/>
      <path d="M 30.609375 48.390625 
Q 23.390625 48.390625 19.1875 42.75 
Q 14.984375 37.109375 14.984375 27.296875 
Q 14.984375 17.484375 19.15625 11.84375 
Q 23.34375 6.203125 30.609375 6.203125 
Q 37.796875 6.203125 41.984375 11.859375 
Q 46.1875 17.53125 46.1875 27.296875 
Q 46.1875 37.015625 41.984375 42.703125 
Q 37.796875 48.390625 30.609375 48.390625 
z
M 30.609375 56 
Q 42.328125 56 49.015625 48.375 
Q 55.71875 40.765625 55.71875 27.296875 
Q 55.71875 13.875 49.015625 6.21875 
Q 42.328125 -1.421875 30.609375 -1.421875 
Q 18.84375 -1.421875 12.171875 6.21875 
Q 5.515625 13.875 5.515625 27.296875 
Q 5.515625 40.765625 12.171875 48.375 
Q 18.84375 56 30.609375 56 
z
" id="DejaVuSans-6f"/>
     </defs>
     <g transform="translate(231.107031 280.276563)scale(0.1 -0.1)">
      <use xlink:href="#DejaVuSans-67"/>
      <use x="63.476562" xlink:href="#DejaVuSans-65"/>
      <use x="125" xlink:href="#DejaVuSans-6e"/>
      <use x="188.378906" xlink:href="#DejaVuSans-65"/>
      <use x="249.902344" xlink:href="#DejaVuSans-72"/>
      <use x="291.015625" xlink:href="#DejaVuSans-61"/>
      <use x="352.294922" xlink:href="#DejaVuSans-74"/>
      <use x="391.503906" xlink:href="#DejaVuSans-69"/>
      <use x="419.287109" xlink:href="#DejaVuSans-6f"/>
      <use x="480.46875" xlink:href="#DejaVuSans-6e"/>
     </g>
    </g>
   </g>
   <g id="matplotlib.axis_2">
    <g id="ytick_1">
     <g id="line2d_10">
      <defs>
       <path d="M 0 0 
L -3.5 0 
" id="m80c4484a17" style="stroke:#000000;stroke-width:0.8;"/>
      </defs>
      <g>
       <use style="stroke:#000000;stroke-width:0.8;" x="63" xlink:href="#m80c4484a17" y="245.490712"/>
      </g>
     </g>
     <g id="text_11">
      <!-- −100 -->
      <defs>
       <path d="M 10.59375 35.5 
L 73.1875 35.5 
L 73.1875 27.203125 
L 10.59375 27.203125 
z
" id="DejaVuSans-2212"/>
      </defs>
      <g transform="translate(28.532812 249.289931)scale(0.1 -0.1)">
       <use xlink:href="#DejaVuSans-2212"/>
       <use x="83.789062" xlink:href="#DejaVuSans-31"/>
       <use x="147.412109" xlink:href="#DejaVuSans-30"/>
       <use x="211.035156" xlink:href="#DejaVuSans-30"/>
      </g>
     </g>
    </g>
    <g id="ytick_2">
     <g id="line2d_11">
      <g>
       <use style="stroke:#000000;stroke-width:0.8;" x="63" xlink:href="#m80c4484a17" y="199.218828"/>
      </g>
     </g>
     <g id="text_12">
      <!-- 0 -->
      <g transform="translate(49.6375 203.018047)scale(0.1 -0.1)">
       <use xlink:href="#DejaVuSans-30"/>
      </g>
     </g>
    </g>
    <g id="ytick_3">
     <g id="line2d_12">
      <g>
       <use style="stroke:#000000;stroke-width:0.8;" x="63" xlink:href="#m80c4484a17" y="152.946944"/>
      </g>
     </g>
     <g id="text_13">
      <!-- 100 -->
      <g transform="translate(36.9125 156.746163)scale(0.1 -0.1)">
       <use xlink:href="#DejaVuSans-31"/>
       <use x="63.623047" xlink:href="#DejaVuSans-30"/>
       <use x="127.246094" xlink:href="#DejaVuSans-30"/>
      </g>
     </g>
    </g>
    <g id="ytick_4">
     <g id="line2d_13">
      <g>
       <use style="stroke:#000000;stroke-width:0.8;" x="63" xlink:href="#m80c4484a17" y="106.67506"/>
      </g>
     </g>
     <g id="text_14">
      <!-- 200 -->
      <g transform="translate(36.9125 110.474279)scale(0.1 -0.1)">
       <use xlink:href="#DejaVuSans-32"/>
       <use x="63.623047" xlink:href="#DejaVuSans-30"/>
       <use x="127.246094" xlink:href="#DejaVuSans-30"/>
      </g>
     </g>
    </g>
    <g id="ytick_5">
     <g id="line2d_14">
      <g>
       <use style="stroke:#000000;stroke-width:0.8;" x="63" xlink:href="#m80c4484a17" y="60.403176"/>
      </g>
     </g>
     <g id="text_15">
      <!-- 300 -->
      <g transform="translate(36.9125 64.202394)scale(0.1 -0.1)">
       <use xlink:href="#DejaVuSans-33"/>
       <use x="63.623047" xlink:href="#DejaVuSans-30"/>
       <use x="127.246094" xlink:href="#DejaVuSans-30"/>
      </g>
     </g>
    </g>
    <g id="text_16">
     <!-- cumulative reward -->
     <defs>
      <path d="M 48.78125 52.59375 
L 48.78125 44.1875 
Q 44.96875 46.296875 41.140625 47.34375 
Q 37.3125 48.390625 33.40625 48.390625 
Q 24.65625 48.390625 19.8125 42.84375 
Q 14.984375 37.3125 14.984375 27.296875 
Q 14.984375 17.28125 19.8125 11.734375 
Q 24.65625 6.203125 33.40625 6.203125 
Q 37.3125 6.203125 41.140625 7.25 
Q 44.96875 8.296875 48.78125 10.40625 
L 48.78125 2.09375 
Q 45.015625 0.34375 40.984375 -0.53125 
Q 36.96875 -1.421875 32.421875 -1.421875 
Q 20.0625 -1.421875 12.78125 6.34375 
Q 5.515625 14.109375 5.515625 27.296875 
Q 5.515625 40.671875 12.859375 48.328125 
Q 20.21875 56 33.015625 56 
Q 37.15625 56 41.109375 55.140625 
Q 45.0625 54.296875 48.78125 52.59375 
z
" id="DejaVuSans-63"/>
      <path d="M 8.5 21.578125 
L 8.5 54.6875 
L 17.484375 54.6875 
L 17.484375 21.921875 
Q 17.484375 14.15625 20.5 10.265625 
Q 23.53125 6.390625 29.59375 6.390625 
Q 36.859375 6.390625 41.078125 11.03125 
Q 45.3125 15.671875 45.3125 23.6875 
L 45.3125 54.6875 
L 54.296875 54.6875 
L 54.296875 0 
L 45.3125 0 
L 45.3125 8.40625 
Q 42.046875 3.421875 37.71875 1 
Q 33.40625 -1.421875 27.6875 -1.421875 
Q 18.265625 -1.421875 13.375 4.4375 
Q 8.5 10.296875 8.5 21.578125 
z
M 31.109375 56 
z
" id="DejaVuSans-75"/>
      <path d="M 52 44.1875 
Q 55.375 50.25 60.0625 53.125 
Q 64.75 56 71.09375 56 
Q 79.640625 56 84.28125 50.015625 
Q 88.921875 44.046875 88.921875 33.015625 
L 88.921875 0 
L 79.890625 0 
L 79.890625 32.71875 
Q 79.890625 40.578125 77.09375 44.375 
Q 74.3125 48.1875 68.609375 48.1875 
Q 61.625 48.1875 57.5625 43.546875 
Q 53.515625 38.921875 53.515625 30.90625 
L 53.515625 0 
L 44.484375 0 
L 44.484375 32.71875 
Q 44.484375 40.625 41.703125 44.40625 
Q 38.921875 48.1875 33.109375 48.1875 
Q 26.21875 48.1875 22.15625 43.53125 
Q 18.109375 38.875 18.109375 30.90625 
L 18.109375 0 
L 9.078125 0 
L 9.078125 54.6875 
L 18.109375 54.6875 
L 18.109375 46.1875 
Q 21.1875 51.21875 25.484375 53.609375 
Q 29.78125 56 35.6875 56 
Q 41.65625 56 45.828125 52.96875 
Q 50 49.953125 52 44.1875 
z
" id="DejaVuSans-6d"/>
      <path d="M 9.421875 75.984375 
L 18.40625 75.984375 
L 18.40625 0 
L 9.421875 0 
z
" id="DejaVuSans-6c"/>
      <path d="M 2.984375 54.6875 
L 12.5 54.6875 
L 29.59375 8.796875 
L 46.6875 54.6875 
L 56.203125 54.6875 
L 35.6875 0 
L 23.484375 0 
z
" id="DejaVuSans-76"/>
      <path id="DejaVuSans-20"/>
      <path d="M 4.203125 54.6875 
L 13.1875 54.6875 
L 24.421875 12.015625 
L 35.59375 54.6875 
L 46.1875 54.6875 
L 57.421875 12.015625 
L 68.609375 54.6875 
L 77.59375 54.6875 
L 63.28125 0 
L 52.6875 0 
L 40.921875 44.828125 
L 29.109375 0 
L 18.5 0 
z
" id="DejaVuSans-77"/>
      <path d="M 45.40625 46.390625 
L 45.40625 75.984375 
L 54.390625 75.984375 
L 54.390625 0 
L 45.40625 0 
L 45.40625 8.203125 
Q 42.578125 3.328125 38.25 0.953125 
Q 33.9375 -1.421875 27.875 -1.421875 
Q 17.96875 -1.421875 11.734375 6.484375 
Q 5.515625 14.40625 5.515625 27.296875 
Q 5.515625 40.1875 11.734375 48.09375 
Q 17.96875 56 27.875 56 
Q 33.9375 56 38.25 53.625 
Q 42.578125 51.265625 45.40625 46.390625 
z
M 14.796875 27.296875 
Q 14.796875 17.390625 18.875 11.75 
Q 22.953125 6.109375 30.078125 6.109375 
Q 37.203125 6.109375 41.296875 11.75 
Q 45.40625 17.390625 45.40625 27.296875 
Q 45.40625 37.203125 41.296875 42.84375 
Q 37.203125 48.484375 30.078125 48.484375 
Q 22.953125 48.484375 18.875 42.84375 
Q 14.796875 37.203125 14.796875 27.296875 
z
" id="DejaVuSans-64"/>
     </defs>
     <g transform="translate(22.453125 190.176875)rotate(-90)scale(0.1 -0.1)">
      <use xlink:href="#DejaVuSans-63"/>
      <use x="54.980469" xlink:href="#DejaVuSans-75"/>
      <use x="118.359375" xlink:href="#DejaVuSans-6d"/>
      <use x="215.771484" xlink:href="#DejaVuSans-75"/>
      <use x="279.150391" xlink:href="#DejaVuSans-6c"/>
      <use x="306.933594" xlink:href="#DejaVuSans-61"/>
      <use x="368.212891" xlink:href="#DejaVuSans-74"/>
      <use x="407.421875" xlink:href="#DejaVuSans-69"/>
      <use x="435.205078" xlink:href="#DejaVuSans-76"/>
      <use x="494.384766" xlink:href="#DejaVuSans-65"/>
      <use x="555.908203" xlink:href="#DejaVuSans-20"/>
      <use x="587.695312" xlink:href="#DejaVuSans-72"/>
      <use x="628.777344" xlink:href="#DejaVuSans-65"/>
      <use x="690.300781" xlink:href="#DejaVuSans-77"/>
      <use x="772.087891" xlink:href="#DejaVuSans-61"/>
      <use x="833.367188" xlink:href="#DejaVuSans-72"/>
      <use x="874.464844" xlink:href="#DejaVuSans-64"/>
     </g>
    </g>
   </g>
   <g id="line2d_15">
    <path clip-path="url(#p090dbbd6bc)" d="M 80.754545 241.373913 
L 81.867683 242.094889 
L 82.980821 242.116364 
L 84.093958 239.797639 
L 85.207096 241.823476 
L 86.320234 241.043501 
L 87.433371 240.465177 
L 88.546509 240.17501 
L 89.659647 240.400391 
L 90.772784 238.936971 
L 91.885922 239.035928 
L 92.99906 235.684852 
L 94.112197 237.952952 
L 95.225335 237.090122 
L 96.338472 237.06587 
L 97.45161 236.834151 
L 98.564748 234.465532 
L 99.677885 238.836048 
L 101.904161 234.949599 
L 104.130436 236.741074 
L 105.243574 234.698219 
L 106.356711 233.360333 
L 107.469849 234.273505 
L 109.696124 231.342535 
L 110.809262 232.346498 
L 111.9224 233.634389 
L 113.035537 231.004149 
L 114.148675 229.470869 
L 115.261812 230.555924 
L 116.37495 229.811187 
L 117.488088 230.943764 
L 118.601225 229.966982 
L 119.714363 229.945633 
L 120.827501 223.977834 
L 121.940638 228.327702 
L 123.053776 222.729872 
L 124.166914 225.272928 
L 126.393189 221.793167 
L 127.506327 221.348797 
L 128.619464 222.694025 
L 129.732602 218.951029 
L 130.84574 218.330383 
L 131.958877 218.438262 
L 133.072015 218.396934 
L 134.185152 207.657543 
L 135.29829 205.343828 
L 136.411428 207.563027 
L 137.524565 202.052241 
L 138.637703 200.679714 
L 139.750841 205.836627 
L 140.863978 197.762391 
L 141.977116 191.811517 
L 143.090254 192.411518 
L 144.203391 189.24814 
L 145.316529 185.307997 
L 146.429667 177.385763 
L 147.542804 184.205565 
L 148.655942 188.831495 
L 149.76908 170.522203 
L 150.882217 175.333577 
L 151.995355 174.057708 
L 153.108492 175.832337 
L 154.22163 172.555485 
L 155.334768 167.858477 
L 156.447905 165.494579 
L 157.561043 156.743397 
L 158.674181 158.828591 
L 159.787318 154.325085 
L 160.900456 150.821977 
L 162.013594 152.192444 
L 163.126731 153.872165 
L 164.239869 153.010388 
L 165.353007 155.325019 
L 166.466144 146.710058 
L 167.579282 149.72668 
L 168.692419 130.847645 
L 169.805557 135.226492 
L 170.918695 132.369434 
L 172.031832 138.312295 
L 173.14497 132.271892 
L 174.258108 129.821602 
L 175.371245 134.332446 
L 176.484383 123.639995 
L 177.597521 133.102915 
L 178.710658 125.263332 
L 179.823796 114.550497 
L 180.936934 122.402714 
L 182.050071 123.257064 
L 183.163209 116.876032 
L 184.276347 121.301181 
L 185.389484 113.617823 
L 186.502622 110.331189 
L 187.615759 121.852049 
L 188.728897 116.228573 
L 189.842035 112.724567 
L 190.955172 113.511163 
L 192.06831 104.854444 
L 193.181448 103.912111 
L 194.294585 104.924182 
L 195.407723 103.845676 
L 196.520861 100.598157 
L 197.633998 113.187987 
L 198.747136 115.25446 
L 199.860274 112.155754 
L 200.973411 104.381279 
L 202.086549 104.279466 
L 203.199687 96.613045 
L 204.312824 100.027809 
L 205.425962 106.896934 
L 206.539099 105.6306 
L 207.652237 93.444283 
L 209.878512 98.013377 
L 210.99165 96.710426 
L 212.104788 104.51528 
L 213.217925 97.004087 
L 214.331063 106.481878 
L 215.444201 86.565389 
L 216.557338 92.413725 
L 217.670476 92.338783 
L 218.783614 93.066987 
L 219.896751 89.175983 
L 221.009889 81.510252 
L 222.123027 84.576844 
L 223.236164 85.691998 
L 224.349302 97.205856 
L 225.462439 84.982145 
L 226.575577 91.455825 
L 227.688715 86.189971 
L 228.801852 91.701669 
L 229.91499 84.394024 
L 231.028128 93.338991 
L 232.141265 89.020278 
L 233.254403 90.226951 
L 234.367541 96.464189 
L 235.480678 78.979872 
L 236.593816 84.746553 
L 237.706954 82.989964 
L 238.820091 81.667735 
L 239.933229 96.883446 
L 241.046366 88.622399 
L 242.159504 77.166319 
L 243.272642 79.574838 
L 244.385779 93.437242 
L 245.498917 81.109214 
L 246.612055 76.716951 
L 247.725192 76.574275 
L 248.83833 94.339989 
L 249.951468 73.061483 
L 251.064605 79.931483 
L 252.177743 79.723497 
L 253.290881 84.52886 
L 254.404018 83.570331 
L 255.517156 84.609502 
L 256.630294 81.669117 
L 257.743431 84.205275 
L 258.856569 81.074367 
L 259.969706 75.020144 
L 261.082844 71.881037 
L 262.195982 73.813032 
L 263.309119 71.771629 
L 264.422257 72.494993 
L 265.535395 71.993795 
L 266.648532 68.493548 
L 267.76167 81.801431 
L 268.874808 71.11826 
L 269.987945 76.485039 
L 271.101083 73.509374 
L 272.214221 66.072024 
L 273.327358 76.22924 
L 274.440496 76.633669 
L 275.553634 80.322971 
L 276.666771 65.658429 
L 277.779909 70.184448 
L 278.893046 84.227477 
L 280.006184 64.195514 
L 281.119322 63.109653 
L 282.232459 67.402995 
L 283.345597 59.269236 
L 284.458735 60.854648 
L 285.571872 76.058387 
L 286.68501 68.696545 
L 287.798148 64.95179 
L 288.911285 66.054617 
L 290.024423 65.075849 
L 291.137561 63.72676 
L 292.250698 60.116355 
L 293.363836 60.84537 
L 294.476973 61.718079 
L 295.590111 63.399833 
L 296.703249 59.099953 
L 297.816386 61.258669 
L 298.929524 62.147785 
L 300.042662 62.092386 
L 301.155799 62.713049 
L 302.268937 67.29002 
L 303.382075 62.275938 
L 304.495212 59.7804 
L 305.60835 66.449216 
L 306.721488 60.805837 
L 307.834625 65.977494 
L 308.947763 62.221489 
L 310.060901 63.804059 
L 311.174038 60.704802 
L 312.287176 62.969642 
L 313.400313 59.781425 
L 314.513451 58.210779 
L 315.626589 61.998649 
L 316.739726 62.772276 
L 317.852864 63.804097 
L 318.966002 64.470064 
L 320.079139 66.047504 
L 321.192277 63.26374 
L 322.305415 61.89296 
L 323.418552 59.733312 
L 324.53169 58.052712 
L 325.644828 60.00093 
L 326.757965 63.578216 
L 327.871103 66.087495 
L 328.984241 59.182202 
L 330.097378 58.670821 
L 331.210516 59.337669 
L 332.323653 67.888047 
L 333.436791 61.533868 
L 334.549929 68.050776 
L 335.663066 59.138025 
L 336.776204 60.341371 
L 337.889342 59.614142 
L 339.002479 57.835658 
L 340.115617 58.144209 
L 341.228755 60.795345 
L 342.341892 58.573234 
L 343.45503 58.303303 
L 344.568168 55.780357 
L 345.681305 55.89005 
L 346.794443 61.453298 
L 347.907581 55.446545 
L 349.020718 57.629942 
L 350.133856 56.181263 
L 351.246993 57.276141 
L 352.360131 60.614677 
L 353.473269 57.816327 
L 354.586406 56.392635 
L 355.699544 57.584079 
L 356.812682 55.944519 
L 357.925819 57.80845 
L 359.038957 56.839936 
L 360.152095 61.689929 
L 361.265232 60.563039 
L 362.37837 63.220353 
L 363.491508 59.543147 
L 364.604645 61.042122 
L 365.717783 57.914357 
L 366.83092 56.01618 
L 367.944058 58.685822 
L 369.057196 60.347746 
L 370.170333 56.5679 
L 371.283471 66.409265 
L 372.396609 56.812439 
L 373.509746 56.481019 
L 374.622884 68.398572 
L 375.736022 58.059519 
L 376.849159 61.661841 
L 377.962297 57.161586 
L 379.075435 57.704934 
L 380.188572 60.661318 
L 381.30171 59.798929 
L 382.414848 56.369277 
L 383.527985 62.518877 
L 384.641123 58.903111 
L 385.75426 56.398907 
L 386.867398 56.740021 
L 387.980536 55.067107 
L 389.093673 55.011718 
L 390.206811 57.301478 
L 391.319949 58.57202 
L 392.433086 56.411465 
L 393.546224 57.578554 
L 394.659362 55.972748 
L 395.772499 58.550133 
L 396.885637 55.941066 
L 397.998775 57.041336 
L 399.111912 55.660033 
L 400.22505 56.52322 
L 401.338188 55.975112 
L 402.451325 61.076562 
L 403.564463 58.700585 
L 404.6776 56.701777 
L 405.790738 61.303571 
L 406.903876 62.786055 
L 408.017013 60.328884 
L 409.130151 56.988475 
L 410.243289 58.787347 
L 411.356426 58.670125 
L 412.469564 62.016077 
L 413.582702 59.104918 
L 414.695839 60.133 
L 415.808977 60.239049 
L 416.922115 61.467229 
L 418.035252 70.845341 
L 419.14839 61.191555 
L 420.261528 62.228469 
L 422.487803 58.314026 
L 423.60094 58.272217 
L 424.714078 58.496531 
L 425.827216 56.25085 
L 426.940353 59.013875 
L 429.166629 58.823731 
L 430.279766 55.982745 
L 431.392904 56.476312 
L 432.506042 56.64442 
L 433.619179 63.670988 
L 434.732317 63.229145 
L 435.845455 56.700866 
L 435.845455 56.700866 
" style="fill:none;stroke:#1f77b4;stroke-linecap:square;stroke-width:1.5;"/>
   </g>
   <g id="line2d_16">
    <path clip-path="url(#p090dbbd6bc)" d="M 80.754545 241.6616 
L 81.867683 239.41042 
L 82.980821 238.395427 
L 84.093958 238.161049 
L 85.207096 238.233049 
L 86.320234 236.911911 
L 87.433371 236.178316 
L 88.546509 235.285461 
L 89.659647 234.868445 
L 90.772784 234.155455 
L 91.885922 234.213425 
L 92.99906 233.065399 
L 94.112197 226.483119 
L 95.225335 218.119667 
L 96.338472 220.094418 
L 97.45161 211.347309 
L 98.564748 213.452485 
L 99.677885 204.641376 
L 100.791023 196.663186 
L 101.904161 201.426836 
L 103.017298 179.574228 
L 104.130436 167.081931 
L 105.243574 171.29265 
L 106.356711 166.348519 
L 107.469849 148.51049 
L 108.582987 144.135273 
L 109.696124 140.379302 
L 110.809262 128.273099 
L 111.9224 131.716853 
L 113.035537 120.753342 
L 114.148675 126.202645 
L 115.261812 100.456288 
L 116.37495 103.258645 
L 117.488088 93.016663 
L 118.601225 87.668904 
L 119.714363 114.366487 
L 120.827501 96.421973 
L 121.940638 88.637131 
L 123.053776 92.1834 
L 124.166914 84.311783 
L 125.280051 82.160201 
L 126.393189 79.079642 
L 127.506327 65.091422 
L 128.619464 70.948285 
L 129.732602 68.579497 
L 130.84574 66.59667 
L 131.958877 61.205473 
L 133.072015 77.636525 
L 134.185152 62.179687 
L 135.29829 67.791589 
L 136.411428 75.751598 
L 137.524565 67.000969 
L 138.637703 65.383207 
L 139.750841 60.643842 
L 140.863978 54.589712 
L 141.977116 67.296782 
L 143.090254 61.674866 
L 144.203391 58.145553 
L 145.316529 55.413773 
L 146.429667 55.12311 
L 147.542804 53.472676 
L 148.655942 54.816766 
L 149.76908 59.6405 
L 150.882217 53.30054 
L 151.995355 53.642821 
L 153.108492 54.595261 
L 154.22163 54.26785 
L 155.334768 50.240629 
L 156.447905 49.189319 
L 157.561043 51.699411 
L 158.674181 52.548772 
L 159.787318 59.126585 
L 160.900456 52.510961 
L 162.013594 49.920238 
L 163.126731 50.933592 
L 164.239869 50.73691 
L 165.353007 69.435492 
L 166.466144 56.297017 
L 167.579282 49.432994 
L 168.692419 67.40944 
L 169.805557 49.253451 
L 170.918695 49.638406 
L 172.031832 47.46582 
L 173.14497 49.859758 
L 174.258108 51.99948 
L 175.371245 49.384177 
L 176.484383 49.594194 
L 177.597521 61.537919 
L 178.710658 51.395525 
L 179.823796 48.913857 
L 180.936934 48.082293 
L 182.050071 52.700122 
L 183.163209 48.404862 
L 184.276347 47.809004 
L 185.389484 46.335669 
L 186.502622 50.170175 
L 187.615759 48.733093 
L 188.728897 46.390959 
L 189.842035 48.287761 
L 190.955172 55.766828 
L 192.06831 57.524074 
L 193.181448 45.751534 
L 194.294585 45.108659 
L 195.407723 46.186309 
L 196.520861 46.604505 
L 197.633998 46.732616 
L 198.747136 44.988453 
L 199.860274 46.837839 
L 200.973411 45.282564 
L 202.086549 47.97001 
L 203.199687 50.233544 
L 204.312824 54.207811 
L 205.425962 45.033913 
L 206.539099 45.45608 
L 207.652237 44.443636 
L 208.765375 47.6462 
L 209.878512 47.663718 
L 210.99165 45.386454 
L 212.104788 50.863948 
L 213.217925 44.704096 
" style="fill:none;stroke:#ff7f0e;stroke-linecap:square;stroke-width:1.5;"/>
   </g>
   <g id="line2d_17">
    <path clip-path="url(#p090dbbd6bc)" d="M 80.754545 60.403176 
L 435.845455 60.403176 
L 435.845455 60.403176 
" style="fill:none;stroke:#2ca02c;stroke-linecap:square;stroke-width:0.5;"/>
   </g>
   <g id="patch_3">
    <path d="M 63 252 
L 63 34.56 
" style="fill:none;stroke:#000000;stroke-linecap:square;stroke-linejoin:miter;stroke-width:0.8;"/>
   </g>
   <g id="patch_4">
    <path d="M 453.6 252 
L 453.6 34.56 
" style="fill:none;stroke:#000000;stroke-linecap:square;stroke-linejoin:miter;stroke-width:0.8;"/>
   </g>
   <g id="patch_5">
    <path d="M 63 252 
L 453.6 252 
" style="fill:none;stroke:#000000;stroke-linecap:square;stroke-linejoin:miter;stroke-width:0.8;"/>
   </g>
   <g id="patch_6">
    <path d="M 63 34.56 
L 453.6 34.56 
" style="fill:none;stroke:#000000;stroke-linecap:square;stroke-linejoin:miter;stroke-width:0.8;"/>
   </g>
   <g id="text_17">
    <!-- BipedalWalkerHardcore-v2 best average score (100 rollouts) -->
    <defs>
     <path d="M 19.671875 34.8125 
L 19.671875 8.109375 
L 35.5 8.109375 
Q 43.453125 8.109375 47.28125 11.40625 
Q 51.125 14.703125 51.125 21.484375 
Q 51.125 28.328125 47.28125 31.5625 
Q 43.453125 34.8125 35.5 34.8125 
z
M 19.671875 64.796875 
L 19.671875 42.828125 
L 34.28125 42.828125 
Q 41.5 42.828125 45.03125 45.53125 
Q 48.578125 48.25 48.578125 53.8125 
Q 48.578125 59.328125 45.03125 62.0625 
Q 41.5 64.796875 34.28125 64.796875 
z
M 9.8125 72.90625 
L 35.015625 72.90625 
Q 46.296875 72.90625 52.390625 68.21875 
Q 58.5 63.53125 58.5 54.890625 
Q 58.5 48.1875 55.375 44.234375 
Q 52.25 40.28125 46.1875 39.3125 
Q 53.46875 37.75 57.5 32.78125 
Q 61.53125 27.828125 61.53125 20.40625 
Q 61.53125 10.640625 54.890625 5.3125 
Q 48.25 0 35.984375 0 
L 9.8125 0 
z
" id="DejaVuSans-42"/>
     <path d="M 18.109375 8.203125 
L 18.109375 -20.796875 
L 9.078125 -20.796875 
L 9.078125 54.6875 
L 18.109375 54.6875 
L 18.109375 46.390625 
Q 20.953125 51.265625 25.265625 53.625 
Q 29.59375 56 35.59375 56 
Q 45.5625 56 51.78125 48.09375 
Q 58.015625 40.1875 58.015625 27.296875 
Q 58.015625 14.40625 51.78125 6.484375 
Q 45.5625 -1.421875 35.59375 -1.421875 
Q 29.59375 -1.421875 25.265625 0.953125 
Q 20.953125 3.328125 18.109375 8.203125 
z
M 48.6875 27.296875 
Q 48.6875 37.203125 44.609375 42.84375 
Q 40.53125 48.484375 33.40625 48.484375 
Q 26.265625 48.484375 22.1875 42.84375 
Q 18.109375 37.203125 18.109375 27.296875 
Q 18.109375 17.390625 22.1875 11.75 
Q 26.265625 6.109375 33.40625 6.109375 
Q 40.53125 6.109375 44.609375 11.75 
Q 48.6875 17.390625 48.6875 27.296875 
z
" id="DejaVuSans-70"/>
     <path d="M 3.328125 72.90625 
L 13.28125 72.90625 
L 28.609375 11.28125 
L 43.890625 72.90625 
L 54.984375 72.90625 
L 70.3125 11.28125 
L 85.59375 72.90625 
L 95.609375 72.90625 
L 77.296875 0 
L 64.890625 0 
L 49.515625 63.28125 
L 33.984375 0 
L 21.578125 0 
z
" id="DejaVuSans-57"/>
     <path d="M 9.078125 75.984375 
L 18.109375 75.984375 
L 18.109375 31.109375 
L 44.921875 54.6875 
L 56.390625 54.6875 
L 27.390625 29.109375 
L 57.625 0 
L 45.90625 0 
L 18.109375 26.703125 
L 18.109375 0 
L 9.078125 0 
z
" id="DejaVuSans-6b"/>
     <path d="M 9.8125 72.90625 
L 19.671875 72.90625 
L 19.671875 43.015625 
L 55.515625 43.015625 
L 55.515625 72.90625 
L 65.375 72.90625 
L 65.375 0 
L 55.515625 0 
L 55.515625 34.71875 
L 19.671875 34.71875 
L 19.671875 0 
L 9.8125 0 
z
" id="DejaVuSans-48"/>
     <path d="M 4.890625 31.390625 
L 31.203125 31.390625 
L 31.203125 23.390625 
L 4.890625 23.390625 
z
" id="DejaVuSans-2d"/>
     <path d="M 48.6875 27.296875 
Q 48.6875 37.203125 44.609375 42.84375 
Q 40.53125 48.484375 33.40625 48.484375 
Q 26.265625 48.484375 22.1875 42.84375 
Q 18.109375 37.203125 18.109375 27.296875 
Q 18.109375 17.390625 22.1875 11.75 
Q 26.265625 6.109375 33.40625 6.109375 
Q 40.53125 6.109375 44.609375 11.75 
Q 48.6875 17.390625 48.6875 27.296875 
z
M 18.109375 46.390625 
Q 20.953125 51.265625 25.265625 53.625 
Q 29.59375 56 35.59375 56 
Q 45.5625 56 51.78125 48.09375 
Q 58.015625 40.1875 58.015625 27.296875 
Q 58.015625 14.40625 51.78125 6.484375 
Q 45.5625 -1.421875 35.59375 -1.421875 
Q 29.59375 -1.421875 25.265625 0.953125 
Q 20.953125 3.328125 18.109375 8.203125 
L 18.109375 0 
L 9.078125 0 
L 9.078125 75.984375 
L 18.109375 75.984375 
z
" id="DejaVuSans-62"/>
     <path d="M 44.28125 53.078125 
L 44.28125 44.578125 
Q 40.484375 46.53125 36.375 47.5 
Q 32.28125 48.484375 27.875 48.484375 
Q 21.1875 48.484375 17.84375 46.4375 
Q 14.5 44.390625 14.5 40.28125 
Q 14.5 37.15625 16.890625 35.375 
Q 19.28125 33.59375 26.515625 31.984375 
L 29.59375 31.296875 
Q 39.15625 29.25 43.1875 25.515625 
Q 47.21875 21.78125 47.21875 15.09375 
Q 47.21875 7.46875 41.1875 3.015625 
Q 35.15625 -1.421875 24.609375 -1.421875 
Q 20.21875 -1.421875 15.453125 -0.5625 
Q 10.6875 0.296875 5.421875 2 
L 5.421875 11.28125 
Q 10.40625 8.6875 15.234375 7.390625 
Q 20.0625 6.109375 24.8125 6.109375 
Q 31.15625 6.109375 34.5625 8.28125 
Q 37.984375 10.453125 37.984375 14.40625 
Q 37.984375 18.0625 35.515625 20.015625 
Q 33.0625 21.96875 24.703125 23.78125 
L 21.578125 24.515625 
Q 13.234375 26.265625 9.515625 29.90625 
Q 5.8125 33.546875 5.8125 39.890625 
Q 5.8125 47.609375 11.28125 51.796875 
Q 16.75 56 26.8125 56 
Q 31.78125 56 36.171875 55.265625 
Q 40.578125 54.546875 44.28125 53.078125 
z
" id="DejaVuSans-73"/>
     <path d="M 31 75.875 
Q 24.46875 64.65625 21.28125 53.65625 
Q 18.109375 42.671875 18.109375 31.390625 
Q 18.109375 20.125 21.3125 9.0625 
Q 24.515625 -2 31 -13.1875 
L 23.1875 -13.1875 
Q 15.875 -1.703125 12.234375 9.375 
Q 8.59375 20.453125 8.59375 31.390625 
Q 8.59375 42.28125 12.203125 53.3125 
Q 15.828125 64.359375 23.1875 75.875 
z
" id="DejaVuSans-28"/>
     <path d="M 8.015625 75.875 
L 15.828125 75.875 
Q 23.140625 64.359375 26.78125 53.3125 
Q 30.421875 42.28125 30.421875 31.390625 
Q 30.421875 20.453125 26.78125 9.375 
Q 23.140625 -1.703125 15.828125 -13.1875 
L 8.015625 -13.1875 
Q 14.5 -2 17.703125 9.0625 
Q 20.90625 20.125 20.90625 31.390625 
Q 20.90625 42.671875 17.703125 53.65625 
Q 14.5 64.65625 8.015625 75.875 
z
" id="DejaVuSans-29"/>
    </defs>
    <g transform="translate(75.954375 28.56)scale(0.12 -0.12)">
     <use xlink:href="#DejaVuSans-42"/>
     <use x="68.603516" xlink:href="#DejaVuSans-69"/>
     <use x="96.386719" xlink:href="#DejaVuSans-70"/>
     <use x="159.863281" xlink:href="#DejaVuSans-65"/>
     <use x="221.386719" xlink:href="#DejaVuSans-64"/>
     <use x="284.863281" xlink:href="#DejaVuSans-61"/>
     <use x="346.142578" xlink:href="#DejaVuSans-6c"/>
     <use x="373.925781" xlink:href="#DejaVuSans-57"/>
     <use x="472.708984" xlink:href="#DejaVuSans-61"/>
     <use x="533.988281" xlink:href="#DejaVuSans-6c"/>
     <use x="561.771484" xlink:href="#DejaVuSans-6b"/>
     <use x="619.634766" xlink:href="#DejaVuSans-65"/>
     <use x="681.158203" xlink:href="#DejaVuSans-72"/>
     <use x="722.271484" xlink:href="#DejaVuSans-48"/>
     <use x="797.466797" xlink:href="#DejaVuSans-61"/>
     <use x="858.746094" xlink:href="#DejaVuSans-72"/>
     <use x="899.84375" xlink:href="#DejaVuSans-64"/>
     <use x="963.320312" xlink:href="#DejaVuSans-63"/>
     <use x="1018.300781" xlink:href="#DejaVuSans-6f"/>
     <use x="1079.482422" xlink:href="#DejaVuSans-72"/>
     <use x="1120.564453" xlink:href="#DejaVuSans-65"/>
     <use x="1182.087891" xlink:href="#DejaVuSans-2d"/>
     <use x="1218.140625" xlink:href="#DejaVuSans-76"/>
     <use x="1277.320312" xlink:href="#DejaVuSans-32"/>
     <use x="1340.943359" xlink:href="#DejaVuSans-20"/>
     <use x="1372.730469" xlink:href="#DejaVuSans-62"/>
     <use x="1436.207031" xlink:href="#DejaVuSans-65"/>
     <use x="1497.730469" xlink:href="#DejaVuSans-73"/>
     <use x="1549.830078" xlink:href="#DejaVuSans-74"/>
     <use x="1589.039062" xlink:href="#DejaVuSans-20"/>
     <use x="1620.826172" xlink:href="#DejaVuSans-61"/>
     <use x="1682.105469" xlink:href="#DejaVuSans-76"/>
     <use x="1741.285156" xlink:href="#DejaVuSans-65"/>
     <use x="1802.808594" xlink:href="#DejaVuSans-72"/>
     <use x="1843.921875" xlink:href="#DejaVuSans-61"/>
     <use x="1905.201172" xlink:href="#DejaVuSans-67"/>
     <use x="1968.677734" xlink:href="#DejaVuSans-65"/>
     <use x="2030.201172" xlink:href="#DejaVuSans-20"/>
     <use x="2061.988281" xlink:href="#DejaVuSans-73"/>
     <use x="2114.087891" xlink:href="#DejaVuSans-63"/>
     <use x="2169.068359" xlink:href="#DejaVuSans-6f"/>
     <use x="2230.25" xlink:href="#DejaVuSans-72"/>
     <use x="2271.332031" xlink:href="#DejaVuSans-65"/>
     <use x="2332.855469" xlink:href="#DejaVuSans-20"/>
     <use x="2364.642578" xlink:href="#DejaVuSans-28"/>
     <use x="2403.65625" xlink:href="#DejaVuSans-31"/>
     <use x="2467.279297" xlink:href="#DejaVuSans-30"/>
     <use x="2530.902344" xlink:href="#DejaVuSans-30"/>
     <use x="2594.525391" xlink:href="#DejaVuSans-20"/>
     <use x="2626.3125" xlink:href="#DejaVuSans-72"/>
     <use x="2667.394531" xlink:href="#DejaVuSans-6f"/>
     <use x="2728.576172" xlink:href="#DejaVuSans-6c"/>
     <use x="2756.359375" xlink:href="#DejaVuSans-6c"/>
     <use x="2784.142578" xlink:href="#DejaVuSans-6f"/>
     <use x="2845.324219" xlink:href="#DejaVuSans-75"/>
     <use x="2908.703125" xlink:href="#DejaVuSans-74"/>
     <use x="2947.912109" xlink:href="#DejaVuSans-73"/>
     <use x="3000.011719" xlink:href="#DejaVuSans-29"/>
    </g>
   </g>
   <g id="legend_1">
    <g id="patch_7">
     <path d="M 159.873438 247 
L 446.6 247 
Q 448.6 247 448.6 245 
L 448.6 201.965625 
Q 448.6 199.965625 446.6 199.965625 
L 159.873438 199.965625 
Q 157.873438 199.965625 157.873438 201.965625 
L 157.873438 245 
Q 157.873438 247 159.873438 247 
z
" style="fill:#ffffff;opacity:0.8;stroke:#cccccc;stroke-linejoin:miter;"/>
    </g>
    <g id="line2d_18">
     <path d="M 161.873438 208.064063 
L 181.873438 208.064063 
" style="fill:none;stroke:#1f77b4;stroke-linecap:square;stroke-width:1.5;"/>
    </g>
    <g id="line2d_19"/>
    <g id="text_18">
     <!-- BipedalWalkerHardcore-v2 best avg score -->
     <g transform="translate(189.873438 211.564063)scale(0.1 -0.1)">
      <use xlink:href="#DejaVuSans-42"/>
      <use x="68.603516" xlink:href="#DejaVuSans-69"/>
      <use x="96.386719" xlink:href="#DejaVuSans-70"/>
      <use x="159.863281" xlink:href="#DejaVuSans-65"/>
      <use x="221.386719" xlink:href="#DejaVuSans-64"/>
      <use x="284.863281" xlink:href="#DejaVuSans-61"/>
      <use x="346.142578" xlink:href="#DejaVuSans-6c"/>
      <use x="373.925781" xlink:href="#DejaVuSans-57"/>
      <use x="472.708984" xlink:href="#DejaVuSans-61"/>
      <use x="533.988281" xlink:href="#DejaVuSans-6c"/>
      <use x="561.771484" xlink:href="#DejaVuSans-6b"/>
      <use x="619.634766" xlink:href="#DejaVuSans-65"/>
      <use x="681.158203" xlink:href="#DejaVuSans-72"/>
      <use x="722.271484" xlink:href="#DejaVuSans-48"/>
      <use x="797.466797" xlink:href="#DejaVuSans-61"/>
      <use x="858.746094" xlink:href="#DejaVuSans-72"/>
      <use x="899.84375" xlink:href="#DejaVuSans-64"/>
      <use x="963.320312" xlink:href="#DejaVuSans-63"/>
      <use x="1018.300781" xlink:href="#DejaVuSans-6f"/>
      <use x="1079.482422" xlink:href="#DejaVuSans-72"/>
      <use x="1120.564453" xlink:href="#DejaVuSans-65"/>
      <use x="1182.087891" xlink:href="#DejaVuSans-2d"/>
      <use x="1218.140625" xlink:href="#DejaVuSans-76"/>
      <use x="1277.320312" xlink:href="#DejaVuSans-32"/>
      <use x="1340.943359" xlink:href="#DejaVuSans-20"/>
      <use x="1372.730469" xlink:href="#DejaVuSans-62"/>
      <use x="1436.207031" xlink:href="#DejaVuSans-65"/>
      <use x="1497.730469" xlink:href="#DejaVuSans-73"/>
      <use x="1549.830078" xlink:href="#DejaVuSans-74"/>
      <use x="1589.039062" xlink:href="#DejaVuSans-20"/>
      <use x="1620.826172" xlink:href="#DejaVuSans-61"/>
      <use x="1682.105469" xlink:href="#DejaVuSans-76"/>
      <use x="1741.285156" xlink:href="#DejaVuSans-67"/>
      <use x="1804.761719" xlink:href="#DejaVuSans-20"/>
      <use x="1836.548828" xlink:href="#DejaVuSans-73"/>
      <use x="1888.648438" xlink:href="#DejaVuSans-63"/>
      <use x="1943.628906" xlink:href="#DejaVuSans-6f"/>
      <use x="2004.810547" xlink:href="#DejaVuSans-72"/>
      <use x="2045.892578" xlink:href="#DejaVuSans-65"/>
     </g>
    </g>
    <g id="line2d_20">
     <path d="M 161.873438 222.742188 
L 181.873438 222.742188 
" style="fill:none;stroke:#ff7f0e;stroke-linecap:square;stroke-width:1.5;"/>
    </g>
    <g id="line2d_21"/>
    <g id="text_19">
     <!-- Learned BipedalWalkerHardcore-v2 best avg score -->
     <defs>
      <path d="M 9.8125 72.90625 
L 19.671875 72.90625 
L 19.671875 8.296875 
L 55.171875 8.296875 
L 55.171875 0 
L 9.8125 0 
z
" id="DejaVuSans-4c"/>
     </defs>
     <g transform="translate(189.873438 226.242188)scale(0.1 -0.1)">
      <use xlink:href="#DejaVuSans-4c"/>
      <use x="55.697266" xlink:href="#DejaVuSans-65"/>
      <use x="117.220703" xlink:href="#DejaVuSans-61"/>
      <use x="178.5" xlink:href="#DejaVuSans-72"/>
      <use x="219.597656" xlink:href="#DejaVuSans-6e"/>
      <use x="282.976562" xlink:href="#DejaVuSans-65"/>
      <use x="344.5" xlink:href="#DejaVuSans-64"/>
      <use x="407.976562" xlink:href="#DejaVuSans-20"/>
      <use x="439.763672" xlink:href="#DejaVuSans-42"/>
      <use x="508.367188" xlink:href="#DejaVuSans-69"/>
      <use x="536.150391" xlink:href="#DejaVuSans-70"/>
      <use x="599.626953" xlink:href="#DejaVuSans-65"/>
      <use x="661.150391" xlink:href="#DejaVuSans-64"/>
      <use x="724.626953" xlink:href="#DejaVuSans-61"/>
      <use x="785.90625" xlink:href="#DejaVuSans-6c"/>
      <use x="813.689453" xlink:href="#DejaVuSans-57"/>
      <use x="912.472656" xlink:href="#DejaVuSans-61"/>
      <use x="973.751953" xlink:href="#DejaVuSans-6c"/>
      <use x="1001.535156" xlink:href="#DejaVuSans-6b"/>
      <use x="1059.398438" xlink:href="#DejaVuSans-65"/>
      <use x="1120.921875" xlink:href="#DejaVuSans-72"/>
      <use x="1162.035156" xlink:href="#DejaVuSans-48"/>
      <use x="1237.230469" xlink:href="#DejaVuSans-61"/>
      <use x="1298.509766" xlink:href="#DejaVuSans-72"/>
      <use x="1339.607422" xlink:href="#DejaVuSans-64"/>
      <use x="1403.083984" xlink:href="#DejaVuSans-63"/>
      <use x="1458.064453" xlink:href="#DejaVuSans-6f"/>
      <use x="1519.246094" xlink:href="#DejaVuSans-72"/>
      <use x="1560.328125" xlink:href="#DejaVuSans-65"/>
      <use x="1621.851562" xlink:href="#DejaVuSans-2d"/>
      <use x="1657.904297" xlink:href="#DejaVuSans-76"/>
      <use x="1717.083984" xlink:href="#DejaVuSans-32"/>
      <use x="1780.707031" xlink:href="#DejaVuSans-20"/>
      <use x="1812.494141" xlink:href="#DejaVuSans-62"/>
      <use x="1875.970703" xlink:href="#DejaVuSans-65"/>
      <use x="1937.494141" xlink:href="#DejaVuSans-73"/>
      <use x="1989.59375" xlink:href="#DejaVuSans-74"/>
      <use x="2028.802734" xlink:href="#DejaVuSans-20"/>
      <use x="2060.589844" xlink:href="#DejaVuSans-61"/>
      <use x="2121.869141" xlink:href="#DejaVuSans-76"/>
      <use x="2181.048828" xlink:href="#DejaVuSans-67"/>
      <use x="2244.525391" xlink:href="#DejaVuSans-20"/>
      <use x="2276.3125" xlink:href="#DejaVuSans-73"/>
      <use x="2328.412109" xlink:href="#DejaVuSans-63"/>
      <use x="2383.392578" xlink:href="#DejaVuSans-6f"/>
      <use x="2444.574219" xlink:href="#DejaVuSans-72"/>
      <use x="2485.65625" xlink:href="#DejaVuSans-65"/>
     </g>
    </g>
    <g id="line2d_22">
     <path d="M 161.873438 237.420313 
L 181.873438 237.420313 
" style="fill:none;stroke:#2ca02c;stroke-linecap:square;stroke-width:0.5;"/>
    </g>
    <g id="line2d_23"/>
    <g id="text_20">
     <!-- Required score (300) -->
     <defs>
      <path d="M 44.390625 34.1875 
Q 47.5625 33.109375 50.5625 29.59375 
Q 53.5625 26.078125 56.59375 19.921875 
L 66.609375 0 
L 56 0 
L 46.6875 18.703125 
Q 43.0625 26.03125 39.671875 28.421875 
Q 36.28125 30.8125 30.421875 30.8125 
L 19.671875 30.8125 
L 19.671875 0 
L 9.8125 0 
L 9.8125 72.90625 
L 32.078125 72.90625 
Q 44.578125 72.90625 50.734375 67.671875 
Q 56.890625 62.453125 56.890625 51.90625 
Q 56.890625 45.015625 53.6875 40.46875 
Q 50.484375 35.9375 44.390625 34.1875 
z
M 19.671875 64.796875 
L 19.671875 38.921875 
L 32.078125 38.921875 
Q 39.203125 38.921875 42.84375 42.21875 
Q 46.484375 45.515625 46.484375 51.90625 
Q 46.484375 58.296875 42.84375 61.546875 
Q 39.203125 64.796875 32.078125 64.796875 
z
" id="DejaVuSans-52"/>
      <path d="M 14.796875 27.296875 
Q 14.796875 17.390625 18.875 11.75 
Q 22.953125 6.109375 30.078125 6.109375 
Q 37.203125 6.109375 41.296875 11.75 
Q 45.40625 17.390625 45.40625 27.296875 
Q 45.40625 37.203125 41.296875 42.84375 
Q 37.203125 48.484375 30.078125 48.484375 
Q 22.953125 48.484375 18.875 42.84375 
Q 14.796875 37.203125 14.796875 27.296875 
z
M 45.40625 8.203125 
Q 42.578125 3.328125 38.25 0.953125 
Q 33.9375 -1.421875 27.875 -1.421875 
Q 17.96875 -1.421875 11.734375 6.484375 
Q 5.515625 14.40625 5.515625 27.296875 
Q 5.515625 40.1875 11.734375 48.09375 
Q 17.96875 56 27.875 56 
Q 33.9375 56 38.25 53.625 
Q 42.578125 51.265625 45.40625 46.390625 
L 45.40625 54.6875 
L 54.390625 54.6875 
L 54.390625 -20.796875 
L 45.40625 -20.796875 
z
" id="DejaVuSans-71"/>
     </defs>
     <g transform="translate(189.873438 240.920313)scale(0.1 -0.1)">
      <use xlink:href="#DejaVuSans-52"/>
      <use x="69.419922" xlink:href="#DejaVuSans-65"/>
      <use x="130.943359" xlink:href="#DejaVuSans-71"/>
      <use x="194.419922" xlink:href="#DejaVuSans-75"/>
      <use x="257.798828" xlink:href="#DejaVuSans-69"/>
      <use x="285.582031" xlink:href="#DejaVuSans-72"/>
      <use x="326.664062" xlink:href="#DejaVuSans-65"/>
      <use x="388.1875" xlink:href="#DejaVuSans-64"/>
      <use x="451.664062" xlink:href="#DejaVuSans-20"/>
      <use x="483.451172" xlink:href="#DejaVuSans-73"/>
      <use x="535.550781" xlink:href="#DejaVuSans-63"/>
      <use x="590.53125" xlink:href="#DejaVuSans-6f"/>
      <use x="651.712891" xlink:href="#DejaVuSans-72"/>
      <use x="692.794922" xlink:href="#DejaVuSans-65"/>
      <use x="754.318359" xlink:href="#DejaVuSans-20"/>
      <use x="786.105469" xlink:href="#DejaVuSans-28"/>
      <use x="825.119141" xlink:href="#DejaVuSans-33"/>
      <use x="888.742188" xlink:href="#DejaVuSans-30"/>
      <use x="952.365234" xlink:href="#DejaVuSans-30"/>
      <use x="1015.988281" xlink:href="#DejaVuSans-29"/>
     </g>
    </g>
   </g>
  </g>
 </g>
 <defs>
  <clipPath id="p090dbbd6bc">
   <rect height="217.44" width="390.6" x="63" y="34.56"/>
  </clipPath>
 </defs>
</svg>
